{
	"patcher" : 	{
		"fileversion" : 1,
		"appversion" : 		{
			"major" : 8,
			"minor" : 0,
			"revision" : 2,
			"architecture" : "x64",
			"modernui" : 1
		}
,
		"classnamespace" : "box",
		"rect" : [ 166.0, 153.0, 363.0, 406.0 ],
		"bglocked" : 0,
		"openinpresentation" : 0,
		"default_fontsize" : 12.0,
		"default_fontface" : 0,
		"default_fontname" : "Arial",
		"gridonopen" : 1,
		"gridsize" : [ 15.0, 15.0 ],
		"gridsnaponopen" : 1,
		"objectsnaponopen" : 1,
		"statusbarvisible" : 2,
		"toolbarvisible" : 0,
		"lefttoolbarpinned" : 0,
		"toptoolbarpinned" : 0,
		"righttoolbarpinned" : 0,
		"bottomtoolbarpinned" : 0,
		"toolbars_unpinned_last_save" : 0,
		"tallnewobj" : 0,
		"boxanimatetime" : 200,
		"enablehscroll" : 1,
		"enablevscroll" : 1,
		"devicewidth" : 0.0,
		"description" : "",
		"digest" : "",
		"tags" : "",
		"style" : "",
		"subpatcher_template" : "no-toolbar_template",
		"boxes" : [ 			{
				"box" : 				{
					"id" : "obj-12",
					"maxclass" : "message",
					"numinlets" : 2,
					"numoutlets" : 1,
					"outlettype" : [ "" ],
					"patching_rect" : [ 103.0, 54.0, 32.0, 22.0 ],
					"text" : "up 4"
				}

			}
, 			{
				"box" : 				{
					"fontname" : "Arial",
					"fontsize" : 12.0,
					"hidden" : 1,
					"id" : "obj-9",
					"maxclass" : "newobj",
					"numinlets" : 1,
					"numoutlets" : 1,
					"outlettype" : [ "" ],
					"patching_rect" : [ 223.5, 213.73724365234375, 85.0, 22.0 ],
					"text" : "loadmess 128"
				}

			}
, 			{
				"box" : 				{
					"id" : "obj-8",
					"maxclass" : "meter~",
					"numinlets" : 1,
					"numoutlets" : 1,
					"outlettype" : [ "float" ],
					"patching_rect" : [ 155.061798095703125, 184.73724365234375, 13.0, 110.0 ]
				}

			}
, 			{
				"box" : 				{
					"id" : "obj-7",
					"maxclass" : "meter~",
					"numinlets" : 1,
					"numoutlets" : 1,
					"outlettype" : [ "float" ],
					"patching_rect" : [ 207.8433837890625, 184.73724365234375, 13.0, 110.0 ]
				}

			}
, 			{
				"box" : 				{
					"id" : "obj-2",
					"interpinlet" : 1,
					"maxclass" : "gain~",
					"multichannelvariant" : 0,
					"numinlets" : 2,
					"numoutlets" : 2,
					"outlettype" : [ "signal", "" ],
					"parameter_enable" : 0,
					"patching_rect" : [ 189.0, 184.73724365234375, 21.0, 110.0 ]
				}

			}
, 			{
				"box" : 				{
					"id" : "obj-3",
					"interpinlet" : 1,
					"maxclass" : "gain~",
					"multichannelvariant" : 0,
					"numinlets" : 2,
					"numoutlets" : 2,
					"outlettype" : [ "signal", "" ],
					"parameter_enable" : 0,
					"patching_rect" : [ 166.0, 184.73724365234375, 21.0, 110.0 ]
				}

			}
, 			{
				"box" : 				{
					"fontname" : "Arial",
					"fontsize" : 12.0,
					"id" : "obj-6",
					"maxclass" : "message",
					"numinlets" : 2,
					"numoutlets" : 1,
					"outlettype" : [ "" ],
					"patching_rect" : [ 95.0, 281.73724365234375, 33.0, 22.0 ],
					"text" : "stop"
				}

			}
, 			{
				"box" : 				{
					"fontname" : "Arial",
					"fontsize" : 12.0,
					"id" : "obj-5",
					"maxclass" : "message",
					"numinlets" : 2,
					"numoutlets" : 1,
					"outlettype" : [ "" ],
					"patching_rect" : [ 76.0, 261.73724365234375, 74.0, 22.0 ],
					"text" : "startwindow"
				}

			}
, 			{
				"box" : 				{
					"fontname" : "Arial",
					"fontsize" : 12.0,
					"hidden" : 1,
					"id" : "obj-4",
					"maxclass" : "message",
					"numinlets" : 2,
					"numoutlets" : 1,
					"outlettype" : [ "" ],
					"patching_rect" : [ 210.0, 309.73724365234375, 43.0, 22.0 ],
					"text" : "set $1"
				}

			}
, 			{
				"box" : 				{
					"fontname" : "Arial",
					"fontsize" : 12.0,
					"id" : "obj-10",
					"maxclass" : "newobj",
					"numinlets" : 2,
					"numoutlets" : 0,
					"patching_rect" : [ 164.5, 308.73724365234375, 42.0, 22.0 ],
					"text" : "dac~"
				}

			}
, 			{
				"box" : 				{
					"id" : "obj-1",
					"maxclass" : "newobj",
					"numinlets" : 1,
					"numoutlets" : 2,
					"outlettype" : [ "signal", "signal" ],
					"patching_rect" : [ 103.0, 93.0, 160.0, 22.0 ],
					"text" : "poly~ poly_syngranul 1 up 4",
					"varname" : "poly~"
				}

			}
 ],
		"lines" : [ 			{
				"patchline" : 				{
					"destination" : [ "obj-2", 0 ],
					"source" : [ "obj-1", 1 ]
				}

			}
, 			{
				"patchline" : 				{
					"destination" : [ "obj-3", 0 ],
					"source" : [ "obj-1", 0 ]
				}

			}
, 			{
				"patchline" : 				{
					"destination" : [ "obj-1", 0 ],
					"source" : [ "obj-12", 0 ]
				}

			}
, 			{
				"patchline" : 				{
					"destination" : [ "obj-10", 1 ],
					"order" : 1,
					"source" : [ "obj-2", 0 ]
				}

			}
, 			{
				"patchline" : 				{
					"destination" : [ "obj-4", 0 ],
					"hidden" : 1,
					"source" : [ "obj-2", 1 ]
				}

			}
, 			{
				"patchline" : 				{
					"destination" : [ "obj-7", 0 ],
					"hidden" : 1,
					"order" : 0,
					"source" : [ "obj-2", 0 ]
				}

			}
, 			{
				"patchline" : 				{
					"destination" : [ "obj-10", 0 ],
					"order" : 0,
					"source" : [ "obj-3", 0 ]
				}

			}
, 			{
				"patchline" : 				{
					"destination" : [ "obj-2", 0 ],
					"hidden" : 1,
					"source" : [ "obj-3", 1 ]
				}

			}
, 			{
				"patchline" : 				{
					"destination" : [ "obj-8", 0 ],
					"hidden" : 1,
					"order" : 1,
					"source" : [ "obj-3", 0 ]
				}

			}
, 			{
				"patchline" : 				{
					"destination" : [ "obj-3", 0 ],
					"hidden" : 1,
					"source" : [ "obj-4", 0 ]
				}

			}
, 			{
				"patchline" : 				{
					"destination" : [ "obj-10", 0 ],
					"midpoints" : [ 85.5, 304.73724365234375, 174.0, 304.73724365234375 ],
					"source" : [ "obj-5", 0 ]
				}

			}
, 			{
				"patchline" : 				{
					"destination" : [ "obj-10", 0 ],
					"midpoints" : [ 104.5, 304.73724365234375, 174.0, 304.73724365234375 ],
					"source" : [ "obj-6", 0 ]
				}

			}
, 			{
				"patchline" : 				{
					"destination" : [ "obj-3", 0 ],
					"hidden" : 1,
					"source" : [ "obj-9", 0 ]
				}

			}
 ],
		"parameters" : 		{
			"obj-1.1::obj-24::obj-229" : [ "live.tab", "live.tab", 0 ],
			"obj-1.1::obj-44" : [ "live.tab[1]", "live.tab[1]", 0 ],
			"parameterbanks" : 			{

			}

		}
,
		"dependency_cache" : [ 			{
				"name" : "poly_syngranul.maxpat",
				"bootpath" : "~/Documents/_Max_lib/gmem-ajout/+subfolder/GMU-1.7-max7-64bit/examples",
				"patcherrelativepath" : ".",
				"type" : "JSON",
				"implicit" : 1
			}
, 			{
				"name" : "trig_ctrl5.maxpat",
				"bootpath" : "~/Documents/_Max_lib/gmem-ajout/+subfolder/GMU-1.7-max7-64bit/abs",
				"patcherrelativepath" : "../abs",
				"type" : "JSON",
				"implicit" : 1
			}
, 			{
				"name" : "mslide_XY2MS.maxpat",
				"bootpath" : "~/Documents/_Max_lib/gmem-ajout/+subfolder/GMU-1.7-max7-64bit/abs",
				"patcherrelativepath" : "../abs",
				"type" : "JSON",
				"implicit" : 1
			}
, 			{
				"name" : "sw.maxpat",
				"bootpath" : "~/Documents/_Max_lib/gmem-ajout/+subfolder/_abs",
				"patcherrelativepath" : "../../_abs",
				"type" : "JSON",
				"implicit" : 1
			}
, 			{
				"name" : "mysw.maxpat",
				"bootpath" : "~/Documents/_Max_lib/gmem-ajout/+subfolder/GMU-1.7-max7-64bit/abs",
				"patcherrelativepath" : "../abs",
				"type" : "JSON",
				"implicit" : 1
			}
, 			{
				"name" : "mychange.maxpat",
				"bootpath" : "~/Documents/_Max_lib/gmem-ajout/+subfolder/GMU-1.7-max7-64bit/abs",
				"patcherrelativepath" : "../abs",
				"type" : "JSON",
				"implicit" : 1
			}
, 			{
				"name" : "setname.js",
				"bootpath" : "~/Documents/_Max_lib/gmem-ajout/+subfolder/GMU-1.7-max7-64bit/js",
				"patcherrelativepath" : "../js",
				"type" : "TEXT",
				"implicit" : 1
			}
, 			{
				"name" : "tranche_ctrl5.maxpat",
				"bootpath" : "~/Documents/_Max_lib/gmem-ajout/+subfolder/GMU-1.7-max7-64bit/abs",
				"patcherrelativepath" : "../abs",
				"type" : "JSON",
				"implicit" : 1
			}
, 			{
				"name" : "ali.pattr-ui.js",
				"bootpath" : "~/Documents/_Max_lib/gmem-ajout/+subfolder/GMU-1.7-max7-64bit/js/_3rd",
				"patcherrelativepath" : "../js/_3rd",
				"type" : "TEXT",
				"implicit" : 1
			}
, 			{
				"name" : "storage_helper.maxpat",
				"bootpath" : "~/Documents/_Max_lib/gmem-ajout/+subfolder/GMU-1.7-max7-64bit/abs",
				"patcherrelativepath" : "../abs",
				"type" : "JSON",
				"implicit" : 1
			}
, 			{
				"name" : "dialog_preset.maxpat",
				"bootpath" : "~/Documents/_Max_lib/gmem-ajout/+subfolder/GMU-1.7-max7-64bit/abs/Envelope_Edit",
				"patcherrelativepath" : "../abs/Envelope_Edit",
				"type" : "JSON",
				"implicit" : 1
			}
, 			{
				"name" : "syngran_sto.xml",
				"bootpath" : "~/Documents/_Max_lib/gmem-ajout/+subfolder/GMU-1.7-max7-64bit/examples",
				"patcherrelativepath" : ".",
				"type" : "TEXT",
				"implicit" : 1
			}
, 			{
				"name" : "gmu.envelope.editor.maxpat",
				"bootpath" : "~/Documents/_Max_lib/gmem-ajout/+subfolder/GMU-1.7-max7-64bit/abs/Envelope_Edit",
				"patcherrelativepath" : "../abs/Envelope_Edit",
				"type" : "JSON",
				"implicit" : 1
			}
, 			{
				"name" : "op_tranche.maxpat",
				"bootpath" : "~/Documents/_Max_lib/gmem-ajout/+subfolder/GMU-1.7-max7-64bit/abs/Envelope_Edit",
				"patcherrelativepath" : "../abs/Envelope_Edit",
				"type" : "JSON",
				"implicit" : 1
			}
, 			{
				"name" : "ad.toggle2.png",
				"bootpath" : "~/Documents/_Max_lib/gmem-ajout/+subfolder/GMU-1.7-max7-64bit/abs/Envelope_Edit",
				"patcherrelativepath" : "../abs/Envelope_Edit",
				"type" : "PNG",
				"implicit" : 1
			}
, 			{
				"name" : "ad.toggle.png",
				"bootpath" : "~/Documents/_Max_lib/gmem-ajout/+subfolder/GMU-1.7-max7-64bit/abs/Envelope_Edit",
				"patcherrelativepath" : "../abs/Envelope_Edit",
				"type" : "PNG",
				"implicit" : 1
			}
, 			{
				"name" : "op_arg3.maxpat",
				"bootpath" : "~/Documents/_Max_lib/gmem-ajout/+subfolder/GMU-1.7-max7-64bit/abs/Envelope_Edit",
				"patcherrelativepath" : "../abs/Envelope_Edit",
				"type" : "JSON",
				"implicit" : 1
			}
, 			{
				"name" : "gmu.env.bank.json",
				"bootpath" : "~/Documents/_Max_lib/gmem-ajout/+subfolder/GMU-1.7-max7-64bit/examples",
				"patcherrelativepath" : ".",
				"type" : "JSON",
				"implicit" : 1
			}
, 			{
				"name" : "gmu.poly.buffer.maxpat",
				"bootpath" : "~/Documents/_Max_lib/gmem-ajout/+subfolder/GMU-1.7-max7-64bit/abs/Envelope_Edit",
				"patcherrelativepath" : "../abs/Envelope_Edit",
				"type" : "JSON",
				"implicit" : 1
			}
, 			{
				"name" : "gmu.env.default.json",
				"bootpath" : "~/Documents/_Max_lib/gmem-ajout/+subfolder/GMU-1.7-max7-64bit/examples",
				"patcherrelativepath" : ".",
				"type" : "JSON",
				"implicit" : 1
			}
, 			{
				"name" : "view_env.maxpat",
				"bootpath" : "~/Documents/_Max_lib/gmem-ajout/+subfolder/GMU-1.7-max7-64bit/abs/Envelope_Edit",
				"patcherrelativepath" : "../abs/Envelope_Edit",
				"type" : "JSON",
				"implicit" : 1
			}
, 			{
				"name" : "synGranul~.mxo",
				"type" : "iLaX"
			}
, 			{
				"name" : "idleubutton.mxo",
				"type" : "iLaX"
			}
, 			{
				"name" : "rand_dist_list~.mxo",
				"type" : "iLaX"
			}
, 			{
				"name" : "bargraf~.mxo",
				"type" : "iLaX"
			}
 ],
		"autosave" : 0
	}

}
